<svg width="1281" height="310" viewBox="0 0 1281 310" fill="none" xmlns="http://www.w3.org/2000/svg">
<path d="M186.804 88.2744C185.133 101.842 180.221 113.755 172.071 124.013C163.921 134.271 153.125 142.214 139.644 147.872C126.165 153.532 110.876 156.377 93.807 156.377C75.3484 156.377 59.082 153.134 45.0118 146.648C30.9406 140.162 20.0733 131.029 12.3763 119.249C4.67832 107.467 0.8125 93.8331 0.8125 78.3455C0.8125 62.8587 4.67832 49.2248 12.3763 37.4439C20.0733 25.6629 30.9406 16.5298 45.0118 10.0438C59.082 3.55771 75.3484 0.314697 93.807 0.314697C110.876 0.314697 126.165 3.12695 139.644 8.78605C153.125 14.4451 163.921 22.4199 172.071 32.6793C180.221 42.9377 185.133 54.851 186.804 68.4182H132.678C130.796 60.6744 126.548 54.6521 119.895 50.3831C113.244 46.1141 104.535 43.9966 93.807 43.9966C85.7978 43.9966 78.901 45.3538 73.084 48.1003C67.267 50.8468 62.8095 54.8173 59.7449 59.9799C56.6793 65.1424 55.147 71.2643 55.147 78.3455C55.147 85.4276 56.6793 91.5494 59.7449 96.7119C62.8095 101.874 67.267 105.812 73.084 108.56C78.901 111.306 85.7978 112.696 93.807 112.696C104.744 112.696 113.487 110.644 120.035 106.573C126.583 102.503 130.796 96.4134 132.678 88.2744H186.804ZM294.847 67.6242C300.211 67.6242 304.354 66.4002 307.247 63.9842C310.137 61.5681 311.564 58.1598 311.564 53.7247C311.564 49.2915 310.137 45.8494 307.247 43.4343C304.354 41.0182 300.211 39.8271 294.847 39.8271H258.903V67.6242H294.847ZM204.985 3.88907H303.206C315.605 3.88907 326.542 5.94004 336.015 10.0767C345.489 14.2133 352.839 20.0704 358.063 27.6162C363.287 35.1611 365.9 43.8642 365.9 53.7247C365.9 64.2488 362.904 73.4156 356.879 81.2252C350.853 89.0347 342.459 94.859 331.732 98.6981L372.169 152.804H310.52L274.993 103.165H258.903V152.804H204.985V3.88907ZM527.858 96.0164H443.744L440.923 112.299H535.59V152.804H383.872L395.366 78.3455L383.872 3.88907H534.545V44.3936H440.923L443.744 60.6744H527.858V96.0164ZM751.048 152.804H693.579L682.818 127.786H609.882L599.12 152.804H541.65L610.405 3.88907H682.295L751.048 152.804ZM665.368 87.0833L646.351 42.6064L627.334 87.0833H665.368ZM897.964 3.88907V49.5562H841.537V152.804H787.619V49.5562H731.195V3.88907H897.964ZM999.107 156.377C980.231 156.377 963.577 153.134 949.162 146.648C934.739 140.162 923.594 131.029 915.691 119.249C907.78 107.467 903.816 93.8331 903.816 78.3455C903.816 62.8587 907.78 49.2248 915.691 37.4439C923.594 25.6629 934.739 16.5298 949.162 10.0438C963.577 3.55771 980.231 0.314697 999.107 0.314697C1017.98 0.314697 1034.63 3.55771 1049.05 10.0438C1063.48 16.5298 1074.66 25.6629 1082.56 37.4439C1090.47 49.2248 1094.4 62.8587 1094.4 78.3455C1094.4 93.8331 1090.47 107.467 1082.56 119.249C1074.66 131.029 1063.48 140.162 1049.05 146.648C1034.63 153.134 1017.98 156.377 999.107 156.377ZM958.146 78.3455C958.146 85.0314 959.785 90.7891 963.062 95.6532C966.331 100.518 971.068 104.257 977.236 106.839C983.397 109.419 990.682 110.71 999.107 110.71C1007.53 110.71 1014.85 109.419 1021.01 106.839C1027.18 104.257 1031.88 100.518 1035.15 95.6532C1038.43 90.7891 1040.07 85.0314 1040.07 78.3455C1040.07 71.6613 1038.43 65.8707 1035.15 61.0058C1031.88 56.1408 1027.18 52.435 1021.01 49.8537C1014.85 47.2733 1007.53 45.9818 999.107 45.9818C990.682 45.9818 983.397 47.2733 977.236 49.8537C971.068 52.435 966.331 56.1408 963.062 61.0058C959.785 65.8707 958.146 71.6613 958.146 78.3455ZM1203.49 67.6242C1208.85 67.6242 1212.99 66.4002 1215.89 63.9842C1218.78 61.5681 1220.21 58.1598 1220.21 53.7247C1220.21 49.2915 1218.78 45.8494 1215.89 43.4343C1212.99 41.0182 1208.85 39.8271 1203.49 39.8271H1167.55V67.6242H1203.49ZM1113.63 3.88907H1211.84C1224.24 3.88907 1235.18 5.94004 1244.66 10.0767C1254.13 14.2133 1261.48 20.0704 1266.71 27.6162C1271.93 35.1611 1274.54 43.8642 1274.54 53.7247C1274.54 64.2488 1271.55 73.4156 1265.52 81.2252C1259.5 89.0347 1251.1 94.859 1240.37 98.6981L1280.81 152.804H1219.16L1183.63 103.165H1167.55V152.804H1113.63V3.88907Z" fill="white"/>
<path d="M213.372 242.555H157.906V251.982H210.827V277.968H157.906V307.218H125.086V216.569H213.372V242.555ZM338.293 307.218H303.309L296.758 291.988H252.361L245.809 307.218H210.827L252.68 216.569H296.44L338.293 307.218ZM286.135 267.211L274.559 240.137L262.983 267.211H286.135ZM449.222 267.936C448.203 276.196 445.214 283.446 440.253 289.692C435.292 295.937 428.719 300.772 420.514 304.215C412.309 307.66 403.002 309.393 392.613 309.393C381.375 309.393 371.473 307.418 362.907 303.471C354.342 299.523 347.728 293.962 343.042 286.792C338.356 279.619 336.003 271.32 336.003 261.893C336.003 252.466 338.356 244.166 343.042 236.994C347.728 229.824 354.342 224.263 362.907 220.316C371.473 216.367 381.375 214.392 392.613 214.392C403.002 214.392 412.309 216.105 420.514 219.55C428.719 222.995 435.292 227.849 440.253 234.095C445.214 240.339 448.203 247.591 449.222 255.849H416.274C415.128 251.136 412.542 247.469 408.493 244.872C404.443 242.272 399.143 240.983 392.613 240.983C387.736 240.983 383.538 241.808 379.997 243.481C376.456 245.153 373.742 247.571 371.875 250.713C370.011 253.855 369.078 257.583 369.078 261.893C369.078 266.204 370.011 269.93 371.875 273.073C373.742 276.216 376.456 278.612 379.997 280.285C383.538 281.956 387.736 282.802 392.613 282.802C399.269 282.802 404.591 281.553 408.577 279.075C412.563 276.598 415.128 272.891 416.274 267.936H449.222ZM553.916 216.569V244.368H519.569V307.218H486.749V244.368H452.401V216.569H553.916ZM615.487 309.393C603.996 309.393 593.861 307.418 585.083 303.471C576.306 299.523 569.521 293.962 564.708 286.792C559.896 279.619 557.479 271.32 557.479 261.893C557.479 252.466 559.896 244.166 564.708 236.994C569.521 229.824 576.306 224.263 585.083 220.316C593.861 216.367 603.996 214.392 615.487 214.392C626.979 214.392 637.112 216.367 645.891 220.316C654.669 224.263 661.474 229.824 666.286 236.994C671.1 244.166 673.496 252.466 673.496 261.893C673.496 271.32 671.1 279.619 666.286 286.792C661.474 293.962 654.669 299.523 645.891 303.471C637.112 307.418 626.979 309.393 615.487 309.393ZM590.553 261.893C590.553 265.963 591.55 269.468 593.542 272.428C595.536 275.39 598.421 277.665 602.172 279.237C605.926 280.809 610.356 281.594 615.487 281.594C620.618 281.594 625.07 280.809 628.824 279.237C632.576 277.665 635.438 275.39 637.431 272.428C639.425 269.468 640.42 265.963 640.42 261.893C640.42 257.825 639.425 254.298 637.431 251.337C635.438 248.376 632.576 246.12 628.824 244.549C625.07 242.978 620.618 242.193 615.487 242.193C610.356 242.193 605.926 242.978 602.172 244.549C598.421 246.12 595.536 248.376 593.542 251.337C591.55 254.298 590.553 257.825 590.553 261.893ZM739.901 255.366C743.165 255.366 745.689 254.622 747.449 253.149C749.209 251.68 750.078 249.604 750.078 246.905C750.078 244.206 749.209 242.111 747.449 240.641C745.689 239.17 743.165 238.445 739.901 238.445H718.02V255.366H739.901ZM685.2 216.569H744.989C752.538 216.569 759.194 217.817 764.961 220.336C770.728 222.853 775.201 226.419 778.382 231.012C781.562 235.604 783.153 240.903 783.153 246.905C783.153 253.311 781.33 258.891 777.662 263.645C773.994 268.4 768.884 271.945 762.353 274.281L786.969 307.218H749.442L727.816 277.001H718.02V307.218H685.2V216.569ZM824.624 271.079L780.099 216.569H816.1L840.97 247.027L865.711 216.569H901.713L857.443 270.595V307.218H824.624V271.079Z" fill="white"/>
<path d="M47.1451 261.814L10.7793 280.725V307.217L73.7687 273.543V250.244L10.7793 216.569V243.062L47.1451 261.814Z" fill="#EBFF00"/>
<path fill-rule="evenodd" clip-rule="evenodd" d="M1280.81 285.896H953.032V309.393H1280.81L1279.85 303.518L1278.9 297.644L1279.85 291.771L1280.81 285.896Z" fill="#EBFF00"/>
<path d="M966.097 245.588C966.391 247.486 967.59 248.974 969.693 250.063C971.795 251.152 974.57 251.702 978.019 251.702C981.258 251.702 983.791 251.302 985.61 250.502C987.429 249.704 988.333 248.565 988.333 247.086C988.333 246.287 988.101 245.618 987.639 245.089C987.176 244.559 986.398 244.129 985.294 243.79C984.191 243.45 982.655 243.19 980.7 243.01L971.932 242.232C965.476 241.672 960.766 240.284 957.791 238.076C954.816 235.869 953.323 232.802 953.323 228.866C953.323 225.81 954.269 223.193 956.162 221.025C958.054 218.857 960.734 217.209 964.194 216.08C967.652 214.951 971.711 214.392 976.379 214.392C980.879 214.392 984.905 215.012 988.459 216.25C992.012 217.489 994.83 219.227 996.901 221.465C998.973 223.702 1000.11 226.289 1000.32 229.226H987.008C986.777 227.608 985.715 226.329 983.812 225.4C981.909 224.471 979.344 224.011 976.127 224.011C973.141 224.011 970.807 224.391 969.115 225.151C967.422 225.91 966.57 226.988 966.57 228.387C966.57 229.485 967.095 230.335 968.147 230.944C969.198 231.553 971.038 231.993 973.666 232.253L983.097 233.122C987.576 233.521 991.161 234.211 993.852 235.189C996.544 236.168 998.5 237.506 999.719 239.205C1000.94 240.903 1001.55 243.051 1001.55 245.648C1001.55 248.764 1000.56 251.502 998.584 253.869C996.607 256.236 993.821 258.075 990.226 259.373C986.63 260.671 982.477 261.32 977.766 261.32C972.909 261.32 968.609 260.661 964.866 259.353C961.123 258.044 958.201 256.206 956.098 253.829C953.995 251.452 952.891 248.704 952.787 245.588H966.097ZM1042.61 215.381H1057.09L1035.01 242.111V260.332H1021.92V242.262L999.751 215.381H1014.23L1028.42 232.582L1042.61 215.381ZM1069.71 245.588C1070 247.486 1071.2 248.974 1073.3 250.063C1075.41 251.152 1078.18 251.702 1081.63 251.702C1084.87 251.702 1087.4 251.302 1089.22 250.502C1091.04 249.704 1091.94 248.565 1091.94 247.086C1091.94 246.287 1091.71 245.618 1091.25 245.089C1090.79 244.559 1090.01 244.129 1088.91 243.79C1087.8 243.45 1086.27 243.19 1084.31 243.01L1075.54 242.232C1069.09 241.672 1064.38 240.284 1061.4 238.076C1058.43 235.869 1056.93 232.802 1056.93 228.866C1056.93 225.81 1057.88 223.193 1059.77 221.025C1061.67 218.857 1064.35 217.209 1067.8 216.08C1071.26 214.951 1075.32 214.392 1079.99 214.392C1084.49 214.392 1088.52 215.012 1092.07 216.25C1095.62 217.489 1098.44 219.227 1100.51 221.465C1102.58 223.702 1103.72 226.289 1103.93 229.226H1090.62C1090.39 227.608 1089.33 226.329 1087.42 225.4C1085.52 224.471 1082.95 224.011 1079.74 224.011C1076.75 224.011 1074.42 224.391 1072.73 225.151C1071.03 225.91 1070.18 226.988 1070.18 228.387C1070.18 229.485 1070.71 230.335 1071.76 230.944C1072.81 231.553 1074.65 231.993 1077.28 232.253L1086.71 233.122C1091.19 233.521 1094.77 234.211 1097.46 235.189C1100.16 236.168 1102.11 237.506 1103.33 239.205C1104.55 240.903 1105.16 243.051 1105.16 245.648C1105.16 248.764 1104.17 251.502 1102.19 253.869C1100.22 256.236 1097.43 258.075 1093.84 259.373C1090.24 260.671 1086.09 261.32 1081.38 261.32C1076.52 261.32 1072.22 260.661 1068.48 259.353C1064.73 258.044 1061.81 256.206 1059.71 253.829C1057.61 251.452 1056.5 248.704 1056.4 245.588H1069.71ZM1106.83 215.381H1156V226.439H1137.96V260.332H1124.87V226.439H1106.83V215.381ZM1175.53 242.381L1174.2 250.263H1204.17V260.332H1160.17L1163.76 237.856L1160.17 215.381H1203.85V225.45H1174.2L1175.53 233.332H1202.02V242.381H1175.53ZM1246.27 248.255L1260.63 215.381H1280.81V260.332H1268.38V226.229L1252.84 260.332H1239.62L1224.1 226.379V260.332H1211.64V215.381H1231.86L1246.27 248.255Z" fill="white"/>
</svg>
