<svg width="436" height="320" viewBox="0 0 436 320" fill="none" xmlns="http://www.w3.org/2000/svg">
<path d="M48.2753 72.9604L0 98.021V133.13L83.6178 88.5039V57.6274L0 13V48.1089L48.2753 72.9604Z" fill="#EBFF00"/>
<path d="M289.622 82.4182C288.133 95.1313 283.76 106.294 276.502 115.906C269.245 125.519 259.599 132.992 247.565 138.325C235.593 143.596 222.008 146.232 206.811 146.232C190.373 146.232 175.889 143.193 163.358 137.116C150.828 131.038 141.12 122.48 134.235 111.441C127.412 100.403 124 87.6274 124 73.1159C124 58.6043 127.412 45.8292 134.235 34.7905C141.12 23.7518 150.828 15.1937 163.358 9.11622C175.889 3.03874 190.373 0 206.811 0C222.008 0 235.593 2.66665 247.565 7.99995C259.599 13.2712 269.245 20.7131 276.502 30.3254C283.76 39.9378 288.133 51.1005 289.622 63.8136H241.424C239.749 56.5578 235.934 50.9455 229.979 46.9765C224.086 42.9455 216.364 40.93 206.811 40.93C199.677 40.93 193.505 42.2323 188.295 44.837C183.146 47.3796 179.207 51.0695 176.478 55.9067C173.749 60.7439 172.384 66.4803 172.384 73.1159C172.384 79.7515 173.749 85.4879 176.478 90.3251C179.207 95.1623 183.146 98.8832 188.295 101.488C193.505 104.03 199.677 105.302 206.811 105.302C216.55 105.302 224.334 103.41 230.165 99.6274C235.996 95.7824 239.749 90.046 241.424 82.4182H289.622Z" fill="white"/>
<path d="M435 3.34881V43.3486H353.864V57.8602H431.278V97.8599H353.864V142.883H305.852V3.34881H435Z" fill="white"/>
<path fill-rule="evenodd" clip-rule="evenodd" d="M435.125 186.232H0V217.371H435.125L433.849 209.586L432.585 201.802L433.849 194.018L435.125 186.232Z" fill="#EBFF00"/>
<path d="M17.6694 298.713C18.0597 301.228 19.6512 303.2 22.4428 304.644C25.2332 306.087 28.9175 306.815 33.4959 306.815C37.7949 306.815 41.1579 306.285 43.5734 305.225C45.9875 304.167 47.1876 302.657 47.1876 300.698C47.1876 299.639 46.8801 298.753 46.2667 298.051C45.652 297.35 44.6191 296.78 43.1538 296.33C41.6885 295.88 39.6505 295.535 37.0553 295.297L25.4155 294.265C16.8455 293.524 10.5928 291.684 6.64316 288.758C2.69354 285.833 0.711629 281.769 0.711629 276.553C0.711629 272.502 1.9679 269.034 4.48025 266.161C6.99259 263.288 10.5506 261.104 15.143 259.609C19.7341 258.112 25.1222 257.371 31.3189 257.371C37.2924 257.371 42.6372 258.192 47.3546 259.834C52.0719 261.475 55.8124 263.778 58.5619 266.744C61.3115 269.709 62.8189 273.137 63.0982 277.029H45.4289C45.1216 274.885 43.7123 273.19 41.1859 271.959C38.6595 270.729 35.2545 270.119 30.9835 270.119C27.0199 270.119 23.9222 270.622 21.6752 271.629C19.4281 272.635 18.2969 274.063 18.2969 275.918C18.2969 277.373 18.9944 278.499 20.3909 279.306C21.7861 280.114 24.2283 280.696 27.7175 281.04L40.2372 282.192C46.1826 282.722 50.9421 283.635 54.5142 284.932C58.0876 286.23 60.684 288.003 62.3024 290.254C63.922 292.504 64.7306 295.35 64.7306 298.793C64.7306 302.922 63.4196 306.55 60.7951 309.686C58.1718 312.824 54.4734 315.26 49.6999 316.98C44.9265 318.702 39.4133 319.562 33.1605 319.562C26.7125 319.562 21.0043 318.688 16.0357 316.955C11.0671 315.22 7.18769 312.784 4.39606 309.634C1.60442 306.483 0.139008 302.842 0 298.713H17.6694ZM119.246 258.682H138.463L109.154 294.105V318.252H91.7784V294.305L62.3445 258.682H81.5621L100.405 281.477L119.246 258.682ZM155.212 298.713C155.602 301.228 157.194 303.2 159.985 304.644C162.776 306.087 166.46 306.815 171.038 306.815C175.338 306.815 178.701 306.285 181.116 305.225C183.53 304.167 184.73 302.657 184.73 300.698C184.73 299.639 184.423 298.753 183.809 298.051C183.195 297.35 182.162 296.78 180.696 296.33C179.231 295.88 177.193 295.535 174.598 295.297L162.958 294.265C154.388 293.524 148.135 291.684 144.186 288.758C140.236 285.833 138.254 281.769 138.254 276.553C138.254 272.502 139.511 269.034 142.023 266.161C144.535 263.288 148.093 261.104 152.686 259.609C157.277 258.112 162.665 257.371 168.862 257.371C174.835 257.371 180.18 258.192 184.897 259.834C189.615 261.475 193.355 263.778 196.105 266.744C198.854 269.709 200.362 273.137 200.641 277.029H182.972C182.664 274.885 181.255 273.19 178.729 271.959C176.202 270.729 172.797 270.119 168.526 270.119C164.563 270.119 161.465 270.622 159.218 271.629C156.971 272.635 155.839 274.063 155.839 275.918C155.839 277.373 156.537 278.499 157.934 279.306C159.329 280.114 161.771 280.696 165.26 281.04L177.78 282.192C183.725 282.722 188.485 283.635 192.057 284.932C195.63 286.23 198.227 288.003 199.845 290.254C201.465 292.504 202.273 295.35 202.273 298.793C202.273 302.922 200.962 306.55 198.338 309.686C195.714 312.824 192.016 315.26 187.243 316.98C182.469 318.702 176.956 319.562 170.703 319.562C164.255 319.562 158.547 318.688 153.578 316.955C148.61 315.22 144.73 312.784 141.939 309.634C139.147 306.483 137.682 302.842 137.543 298.713H155.212ZM204.493 258.682H269.769V273.336H245.818V318.252H228.442V273.336H204.493V258.682ZM295.687 294.463L293.928 304.909H333.705V318.252H275.296L280.069 288.466L275.296 258.682H333.286V272.025H293.928L295.687 282.47H330.858V294.463H295.687ZM389.602 302.247L408.653 258.682H435.45V318.252H418.952V273.058L398.311 318.252H380.767L360.167 273.257V318.252H343.629V258.682H370.468L389.602 302.247Z" fill="white"/>
</svg>
